<svg width="420" height="158" viewBox="0 0 420 158" fill="none" xmlns="http://www.w3.org/2000/svg">
<rect x="129" y="35" width="161" height="88" fill="white" fill-opacity="0.8"/>
<path fill-rule="evenodd" clip-rule="evenodd" d="M275.5 123.182C284.023 110.571 289 95.3666 289 79C289 62.6334 284.023 47.4293 275.5 34.8185C289.698 13.811 313.736 0 341 0C384.63 0 420 35.3695 420 79C420 122.63 384.63 158 341 158C313.736 158 289.698 144.189 275.5 123.182Z" fill="#40BCF4"/>
<path fill-rule="evenodd" clip-rule="evenodd" d="M144.5 123.182C153.023 110.571 158 95.3666 158 79C158 62.6334 153.023 47.4293 144.5 34.8185C158.698 13.811 182.736 0 210 0C237.264 0 261.302 13.811 275.5 34.8185C266.977 47.4293 262 62.6334 262 79C262 95.3666 266.977 110.571 275.5 123.182C261.302 144.189 237.264 158 210 158C182.736 158 158.698 144.189 144.5 123.182Z" fill="#00E054"/>
<path fill-rule="evenodd" clip-rule="evenodd" d="M144.5 34.8185C135.977 47.4293 131 62.6334 131 79C131 95.3666 135.977 110.571 144.5 123.182C130.302 144.189 106.264 158 78.9998 158C35.3693 158 -0.000244141 122.63 -0.000244141 79C-0.000244141 35.3695 35.3693 0 78.9998 0C106.264 0 130.302 13.811 144.5 34.8185Z" fill="#FF8000"/>
<path fill-rule="evenodd" clip-rule="evenodd" d="M220.17 60.8858C220.561 60.4953 221.194 60.4953 221.584 60.8858L225.382 64.6836L238.69 77.9915C239.08 78.382 239.08 79.0152 238.69 79.4057L235.059 83.0365C235.059 83.0365 235.059 83.0365 235.059 83.0365V83.0365C235.059 83.0365 235.059 83.0365 235.059 83.0365L221.584 96.5114C221.194 96.9019 220.56 96.9019 220.17 96.5114L216.539 92.8805L207.569 83.9107C207.179 83.5202 206.545 83.5202 206.155 83.9107L196.391 93.6749C196 94.0655 195.367 94.0655 194.976 93.6749L191.886 90.5843C191.495 90.1938 191.495 89.5606 191.886 89.1701L201.65 79.4059C202.041 79.0153 202.041 78.3822 201.65 77.9917L191.886 68.2271C191.495 67.8366 191.495 67.2034 191.886 66.8129L194.976 63.7223C195.367 63.3318 196 63.3318 196.39 63.7223L206.155 73.4868C206.545 73.8774 207.179 73.8774 207.569 73.4868L216.539 64.5167L220.17 60.8858ZM230.014 77.9914C230.404 78.3819 230.404 79.0151 230.014 79.4056L221.751 87.6686C221.36 88.0591 220.727 88.0591 220.337 87.6686L212.074 79.4059C211.683 79.0153 211.683 78.3822 212.074 77.9917L220.337 69.7287C220.727 69.3381 221.361 69.3381 221.751 69.7286L230.014 77.9914ZM218.541 81.535C219.924 82.9172 222.164 82.9172 223.547 81.535C224.929 80.1528 224.929 77.9119 223.547 76.5297C222.164 75.1475 219.924 75.1475 218.541 76.5297C217.159 77.9119 217.159 80.1528 218.541 81.535Z" fill="white"/>
<path fill-rule="evenodd" clip-rule="evenodd" d="M353.17 60.8858C353.561 60.4953 354.194 60.4953 354.584 60.8858L358.382 64.6836L371.69 77.9915C372.08 78.382 372.08 79.0152 371.69 79.4057L368.059 83.0365C368.059 83.0365 368.059 83.0365 368.059 83.0365V83.0365C368.059 83.0365 368.059 83.0365 368.059 83.0365L354.584 96.5114C354.194 96.9019 353.56 96.9019 353.17 96.5114L349.539 92.8805L340.569 83.9107C340.179 83.5202 339.545 83.5202 339.155 83.9107L329.391 93.6749C329 94.0655 328.367 94.0655 327.976 93.6749L324.886 90.5843C324.495 90.1938 324.495 89.5606 324.886 89.1701L334.65 79.4059C335.041 79.0153 335.041 78.3822 334.65 77.9917L324.886 68.2271C324.495 67.8366 324.495 67.2034 324.886 66.8129L327.976 63.7223C328.367 63.3318 329 63.3318 329.39 63.7223L339.155 73.4868C339.545 73.8774 340.179 73.8774 340.569 73.4868L349.539 64.5167L353.17 60.8858ZM363.014 77.9914C363.404 78.3819 363.404 79.0151 363.014 79.4056L354.751 87.6686C354.36 88.0591 353.727 88.0591 353.337 87.6686L345.074 79.4059C344.683 79.0153 344.683 78.3822 345.074 77.9917L353.337 69.7287C353.727 69.3381 354.361 69.3381 354.751 69.7286L363.014 77.9914ZM351.541 81.535C352.924 82.9172 355.164 82.9172 356.547 81.535C357.929 80.1528 357.929 77.9119 356.547 76.5297C355.164 75.1475 352.924 75.1475 351.541 76.5297C350.159 77.9119 350.159 80.1528 351.541 81.535Z" fill="white"/>
<path fill-rule="evenodd" clip-rule="evenodd" d="M82.1701 60.8858C82.5606 60.4953 83.1938 60.4953 83.5843 60.8858L87.382 64.6836L100.69 77.9915C101.08 78.382 101.08 79.0152 100.69 79.4057L97.0591 83.0365C97.0591 83.0365 97.0591 83.0365 97.059 83.0365V83.0365C97.059 83.0365 97.059 83.0365 97.0589 83.0365L83.5841 96.5114C83.1935 96.9019 82.5604 96.9019 82.1698 96.5114L78.539 92.8805L69.5691 83.9107C69.1786 83.5202 68.5454 83.5202 68.1549 83.9107L58.3907 93.6749C58.0001 94.0655 57.367 94.0655 56.9765 93.6749L53.8858 90.5843C53.4953 90.1938 53.4953 89.5606 53.8858 89.1701L63.6501 79.4059C64.0406 79.0153 64.0406 78.3822 63.6501 77.9917L53.8856 68.2271C53.495 67.8366 53.495 67.2034 53.8856 66.8129L56.9762 63.7223C57.3667 63.3318 57.9999 63.3318 58.3904 63.7223L68.1549 73.4868C68.5454 73.8774 69.1786 73.8774 69.5691 73.4868L78.5392 64.5167L82.1701 60.8858ZM92.0139 77.9914C92.4044 78.3819 92.4044 79.0151 92.0139 79.4056L83.7509 87.6686C83.3604 88.0591 82.7272 88.0591 82.3367 87.6686L74.074 79.4059C73.6834 79.0153 73.6834 78.3822 74.074 77.9917L82.337 69.7287C82.7275 69.3381 83.3606 69.3381 83.7512 69.7286L92.0139 77.9914ZM80.5413 81.535C81.9235 82.9172 84.1645 82.9172 85.5467 81.535C86.9289 80.1528 86.9289 77.9119 85.5467 76.5297C84.1645 75.1475 81.9235 75.1475 80.5413 76.5297C79.1591 77.9119 79.1591 80.1528 80.5413 81.535Z" fill="white"/>
</svg>
